<svg id="Electric_Plug"  xmlns="http://www.w3.org/2000/svg" width="78.107" height="78.107" viewBox="0 0 78.107 78.107">
  <path id="Path_11506"  d="M50.166,68.391h9.112a3.917,3.917,0,0,0,3.905-3.905v-10.6a5.207,5.207,0,0,0,3.905-5.025V46.2A14.334,14.334,0,0,0,80.107,31.941V21.527A3.917,3.917,0,0,0,76.2,17.621H74.9V7.207a5.207,5.207,0,0,0-10.414,0V17.621H59.278V7.207a5.207,5.207,0,1,0-10.414,0V17.621h-1.3a3.917,3.917,0,0,0-3.905,3.905V31.941A14.334,14.334,0,0,0,56.675,46.2v2.669a5.207,5.207,0,0,0,3.905,5.025v10.6a1.3,1.3,0,0,1-1.3,1.3H50.166a3.9,3.9,0,0,0-3.775,4.869A3.974,3.974,0,0,0,50.309,73.6H76.2a1.3,1.3,0,0,1,1.3,1.3v1.3a1.3,1.3,0,0,1-1.3,1.3H29.337a9.123,9.123,0,0,1-9.112-9.112V43.657H31.941a3.917,3.917,0,0,0,3.905-3.905V5.905A3.917,3.917,0,0,0,31.941,2H5.905A3.917,3.917,0,0,0,2,5.905V39.752a3.917,3.917,0,0,0,3.905,3.905H17.621V68.391A11.734,11.734,0,0,0,29.337,80.107H76.2A3.917,3.917,0,0,0,80.107,76.2V74.9A3.917,3.917,0,0,0,76.2,70.994H50.309a1.432,1.432,0,0,1-1.406-.976,1.252,1.252,0,0,1,.364-1.25A1.208,1.208,0,0,1,50.166,68.391ZM67.089,7.207a2.6,2.6,0,0,1,5.207,0v14.32H67.089Zm-15.621,0a2.6,2.6,0,1,1,5.207,0v14.32H51.468Zm5.22,36.372A11.716,11.716,0,0,1,46.26,31.941V21.527a1.3,1.3,0,0,1,1.3-1.3h1.3v2.6a1.3,1.3,0,0,0,1.3,1.3h7.811a1.3,1.3,0,0,0,1.3-1.3v-2.6h5.207v2.6a1.3,1.3,0,0,0,1.3,1.3H73.6a1.3,1.3,0,0,0,1.3-1.3v-2.6h1.3a1.3,1.3,0,0,1,1.3,1.3V31.941A11.716,11.716,0,0,1,67.076,43.579a5.194,5.194,0,0,0-10.388,0Zm2.591,5.285V43.657a2.6,2.6,0,0,1,5.207,0v5.207a2.6,2.6,0,0,1-5.207,0ZM5.905,41.053a1.3,1.3,0,0,1-1.3-1.3V5.905a1.3,1.3,0,0,1,1.3-1.3H31.941a1.3,1.3,0,0,1,1.3,1.3V39.752a1.3,1.3,0,0,1-1.3,1.3Z" transform="translate(-2 -2)" fill="#022c43"/>
  <rect id="Rectangle_6230"  height="2.929" transform="translate(59.557 41.983)" fill="#022c43"/>
  <path id="Path_11507"  d="M26.029,18.026a1.3,1.3,0,0,0-1.107-.612H18.413V8.3a1.3,1.3,0,0,0-1-1.263,1.281,1.281,0,0,0-1.458.677L8.142,23.337A1.3,1.3,0,0,0,9.3,25.225H15.81v9.112a1.3,1.3,0,0,0,1,1.263,1.182,1.182,0,0,0,.3.039,1.3,1.3,0,0,0,1.159-.716L26.081,19.3A1.311,1.311,0,0,0,26.029,18.026ZM18.413,28.818V23.923a1.3,1.3,0,0,0-1.3-1.3h-5.7l4.4-8.8v4.895a1.3,1.3,0,0,0,1.3,1.3h5.7Z" transform="translate(-0.188 -0.491)" fill="#022c43"/>
</svg>
