<svg xmlns="http://www.w3.org/2000/svg" xmlns:xlink="http://www.w3.org/1999/xlink" version="1.1" width="256" height="256" viewBox="0 0 256 256" xml:space="preserve">

<defs>
</defs>
<g style="stroke: none; stroke-width: 0; stroke-dasharray: none; stroke-linecap: butt; stroke-linejoin: miter; stroke-miterlimit: 10; fill: none; fill-rule: nonzero; opacity: 1;" transform="translate(1.4065934065934016 1.4065934065934016) scale(2.81 2.81)" >
	<path d="M 45 77.294 c -20.791 0 -37.705 -16.914 -37.705 -37.705 V 24.38 c 0 -0.552 0.448 -1 1 -1 s 1 0.448 1 1 v 15.209 c 0 19.688 16.017 35.705 35.705 35.705 s 35.705 -16.017 35.705 -35.705 V 24.38 c 0 -0.552 0.447 -1 1 -1 s 1 0.448 1 1 v 15.209 C 82.705 60.38 65.791 77.294 45 77.294 z" style="stroke: none; stroke-width: 1; stroke-dasharray: none; stroke-linecap: butt; stroke-linejoin: miter; stroke-miterlimit: 10; fill: rgb(0,0,0); fill-rule: nonzero; opacity: 1;" transform=" matrix(1 0 0 1 0 0) " stroke-linecap="round" />
	<path d="M 45 64.635 c -8.354 0 -15.151 -6.797 -15.151 -15.151 c 0 -8.354 6.797 -15.151 15.151 -15.151 s 15.151 6.797 15.151 15.151 C 60.151 57.838 53.354 64.635 45 64.635 z M 45 36.333 c -7.251 0 -13.151 5.899 -13.151 13.151 c 0 7.252 5.9 13.151 13.151 13.151 c 7.252 0 13.151 -5.899 13.151 -13.151 C 58.151 42.232 52.252 36.333 45 36.333 z" style="stroke: none; stroke-width: 1; stroke-dasharray: none; stroke-linecap: butt; stroke-linejoin: miter; stroke-miterlimit: 10; fill: rgb(0,0,0); fill-rule: nonzero; opacity: 1;" transform=" matrix(1 0 0 1 0 0) " stroke-linecap="round" />
	<path d="M 45 56.483 c -3.86 0 -7 -3.141 -7 -7 s 3.14 -7 7 -7 c 3.859 0 7 3.14 7 7 S 48.859 56.483 45 56.483 z M 45 44.484 c -2.757 0 -5 2.243 -5 5 s 2.243 5 5 5 s 5 -2.243 5 -5 S 47.757 44.484 45 44.484 z" style="stroke: none; stroke-width: 1; stroke-dasharray: none; stroke-linecap: butt; stroke-linejoin: miter; stroke-miterlimit: 10; fill: rgb(0,0,0); fill-rule: nonzero; opacity: 1;" transform=" matrix(1 0 0 1 0 0) " stroke-linecap="round" />
	<path d="M 84.105 25.38 H 5.894 C 2.644 25.38 0 22.736 0 19.485 v -5.779 c 0 -0.552 0.448 -1 1 -1 h 88 c 0.553 0 1 0.448 1 1 v 5.779 C 90 22.736 87.355 25.38 84.105 25.38 z M 2 14.706 v 4.779 c 0 2.147 1.747 3.895 3.894 3.895 h 78.211 c 2.147 0 3.895 -1.747 3.895 -3.895 v -4.779 H 2 z" style="stroke: none; stroke-width: 1; stroke-dasharray: none; stroke-linecap: butt; stroke-linejoin: miter; stroke-miterlimit: 10; fill: rgb(0,0,0); fill-rule: nonzero; opacity: 1;" transform=" matrix(1 0 0 1 0 0) " stroke-linecap="round" />
	<path d="M 23.339 36.333 h -6.217 c -0.552 0 -1 -0.448 -1 -1 s 0.448 -1 1 -1 h 6.217 c 0.552 0 1 0.448 1 1 S 23.892 36.333 23.339 36.333 z" style="stroke: none; stroke-width: 1; stroke-dasharray: none; stroke-linecap: butt; stroke-linejoin: miter; stroke-miterlimit: 10; fill: rgb(0,0,0); fill-rule: nonzero; opacity: 1;" transform=" matrix(1 0 0 1 0 0) " stroke-linecap="round" />
</g>
</svg>